<mxfile host="app.diagrams.net" modified="2021-05-12T23:45:35.152Z" agent="5.0 (Macintosh; Intel Mac OS X 10_15_6) AppleWebKit/605.1.15 (KHTML, like Gecko) Version/14.0.3 Safari/605.1.15" etag="p3tmiwAj_8Ul5EbEJ_3Y" version="14.6.12" type="github">
  <diagram id="6uzFL_6K-IdcTFMs4cGi" name="Page-1">
    <mxGraphModel dx="830" dy="774" grid="1" gridSize="10" guides="1" tooltips="1" connect="1" arrows="1" fold="1" page="1" pageScale="1" pageWidth="850" pageHeight="1100" math="0" shadow="0">
      <root>
        <mxCell id="0" />
        <mxCell id="1" parent="0" />
        <mxCell id="HlD5PFbNKhqT3vz1J3pK-2" value="&lt;font style=&quot;font-size: 19px&quot;&gt;Eatscribe-Subscribe to eating&lt;/font&gt;" style="rounded=1;whiteSpace=wrap;html=1;fillColor=#dae8fc;strokeColor=#6c8ebf;" vertex="1" parent="1">
          <mxGeometry x="280" y="40" width="255" height="60" as="geometry" />
        </mxCell>
        <mxCell id="HlD5PFbNKhqT3vz1J3pK-6" value="" style="rounded=0;whiteSpace=wrap;html=1;fillColor=#f5f5f5;strokeColor=#666666;fontColor=#333333;" vertex="1" parent="1">
          <mxGeometry x="30" y="130" width="820" height="480" as="geometry" />
        </mxCell>
        <mxCell id="HlD5PFbNKhqT3vz1J3pK-9" value="" style="shape=actor;whiteSpace=wrap;html=1;fillColor=#f5f5f5;strokeColor=#666666;fontColor=#333333;sketch=1;" vertex="1" parent="1">
          <mxGeometry x="70" y="140" width="40" height="60" as="geometry" />
        </mxCell>
        <mxCell id="HlD5PFbNKhqT3vz1J3pK-10" value="User" style="text;html=1;strokeColor=none;fillColor=none;align=center;verticalAlign=middle;whiteSpace=wrap;rounded=0;" vertex="1" parent="1">
          <mxGeometry x="40" y="180" width="100" height="20" as="geometry" />
        </mxCell>
        <mxCell id="HlD5PFbNKhqT3vz1J3pK-13" value="" style="endArrow=classic;html=1;" edge="1" parent="1">
          <mxGeometry relative="1" as="geometry">
            <mxPoint x="110" y="180" as="sourcePoint" />
            <mxPoint x="210" y="180" as="targetPoint" />
          </mxGeometry>
        </mxCell>
        <mxCell id="HlD5PFbNKhqT3vz1J3pK-14" value="Sign up" style="edgeLabel;resizable=0;html=1;align=center;verticalAlign=middle;" connectable="0" vertex="1" parent="HlD5PFbNKhqT3vz1J3pK-13">
          <mxGeometry relative="1" as="geometry" />
        </mxCell>
        <mxCell id="HlD5PFbNKhqT3vz1J3pK-16" value="Eatscribe" style="rounded=0;whiteSpace=wrap;html=1;fillColor=#dae8fc;strokeColor=#6c8ebf;" vertex="1" parent="1">
          <mxGeometry x="210" y="160" width="80" height="40" as="geometry" />
        </mxCell>
        <mxCell id="HlD5PFbNKhqT3vz1J3pK-19" value="Small Vendors&lt;br&gt;Gas Stations&lt;br&gt;Food Trucks&lt;br&gt;Restaurants" style="rounded=1;whiteSpace=wrap;html=1;fillColor=#dae8fc;strokeColor=#6c8ebf;" vertex="1" parent="1">
          <mxGeometry x="700" y="150" width="120" height="60" as="geometry" />
        </mxCell>
        <mxCell id="HlD5PFbNKhqT3vz1J3pK-30" value="Search" style="shape=step;perimeter=stepPerimeter;whiteSpace=wrap;html=1;fixedSize=1;fillColor=#fff2cc;strokeColor=#d6b656;" vertex="1" parent="1">
          <mxGeometry x="90" y="280" width="80" height="30" as="geometry" />
        </mxCell>
        <mxCell id="HlD5PFbNKhqT3vz1J3pK-31" value="Cuisine" style="shape=step;perimeter=stepPerimeter;whiteSpace=wrap;html=1;fixedSize=1;fillColor=#ffe6cc;strokeColor=#d79b00;" vertex="1" parent="1">
          <mxGeometry x="190" y="280" width="80" height="30" as="geometry" />
        </mxCell>
        <mxCell id="HlD5PFbNKhqT3vz1J3pK-32" value="Chefs" style="shape=step;perimeter=stepPerimeter;whiteSpace=wrap;html=1;fixedSize=1;fillColor=#ffe6cc;strokeColor=#d79b00;" vertex="1" parent="1">
          <mxGeometry x="280" y="280" width="80" height="30" as="geometry" />
        </mxCell>
        <mxCell id="HlD5PFbNKhqT3vz1J3pK-33" value="" style="endArrow=classic;html=1;exitX=0.5;exitY=1;exitDx=0;exitDy=0;entryX=0.5;entryY=0;entryDx=0;entryDy=0;" edge="1" parent="1" source="HlD5PFbNKhqT3vz1J3pK-16" target="HlD5PFbNKhqT3vz1J3pK-30">
          <mxGeometry relative="1" as="geometry">
            <mxPoint x="240" y="380" as="sourcePoint" />
            <mxPoint x="340" y="380" as="targetPoint" />
            <Array as="points">
              <mxPoint x="250" y="220" />
              <mxPoint x="130" y="220" />
            </Array>
          </mxGeometry>
        </mxCell>
        <mxCell id="HlD5PFbNKhqT3vz1J3pK-34" value="Action" style="edgeLabel;resizable=0;html=1;align=center;verticalAlign=middle;" connectable="0" vertex="1" parent="HlD5PFbNKhqT3vz1J3pK-33">
          <mxGeometry relative="1" as="geometry" />
        </mxCell>
        <mxCell id="HlD5PFbNKhqT3vz1J3pK-39" value="Reviews" style="ellipse;shape=cloud;whiteSpace=wrap;html=1;fillColor=#e1d5e7;strokeColor=#9673a6;sketch=1;" vertex="1" parent="1">
          <mxGeometry x="290" y="320" width="60" height="40" as="geometry" />
        </mxCell>
        <mxCell id="HlD5PFbNKhqT3vz1J3pK-40" value="Tenure" style="shape=step;perimeter=stepPerimeter;whiteSpace=wrap;html=1;fixedSize=1;fillColor=#ffe6cc;strokeColor=#d79b00;" vertex="1" parent="1">
          <mxGeometry x="380" y="280" width="80" height="30" as="geometry" />
        </mxCell>
        <mxCell id="HlD5PFbNKhqT3vz1J3pK-41" value="checkout" style="shape=step;perimeter=stepPerimeter;whiteSpace=wrap;html=1;fixedSize=1;fillColor=#d5e8d4;strokeColor=#82b366;" vertex="1" parent="1">
          <mxGeometry x="470" y="280" width="90" height="30" as="geometry" />
        </mxCell>
        <mxCell id="HlD5PFbNKhqT3vz1J3pK-44" value="Any dish" style="text;html=1;strokeColor=#d6b656;align=center;verticalAlign=middle;whiteSpace=wrap;rounded=1;fillColor=#fff2cc;gradientDirection=north;shadow=1;glass=1;sketch=1;" vertex="1" parent="1">
          <mxGeometry x="100" y="320" width="60" height="40" as="geometry" />
        </mxCell>
        <mxCell id="HlD5PFbNKhqT3vz1J3pK-46" value="Indian" style="text;html=1;align=center;verticalAlign=middle;whiteSpace=wrap;rounded=1;gradientDirection=north;shadow=1;glass=1;sketch=1;fillColor=#f5f5f5;strokeColor=#666666;fontColor=#333333;" vertex="1" parent="1">
          <mxGeometry x="195" y="320" width="70" height="40" as="geometry" />
        </mxCell>
        <mxCell id="HlD5PFbNKhqT3vz1J3pK-51" value="" style="edgeStyle=segmentEdgeStyle;endArrow=classic;html=1;" edge="1" parent="1">
          <mxGeometry width="50" height="50" relative="1" as="geometry">
            <mxPoint x="230" y="360" as="sourcePoint" />
            <mxPoint x="170" y="420" as="targetPoint" />
            <Array as="points">
              <mxPoint x="230" y="360" />
              <mxPoint x="230" y="400" />
              <mxPoint x="170" y="400" />
            </Array>
          </mxGeometry>
        </mxCell>
        <mxCell id="HlD5PFbNKhqT3vz1J3pK-53" value="" style="edgeStyle=segmentEdgeStyle;endArrow=classic;html=1;" edge="1" parent="1">
          <mxGeometry width="50" height="50" relative="1" as="geometry">
            <mxPoint x="230" y="361" as="sourcePoint" />
            <mxPoint x="290" y="421" as="targetPoint" />
            <Array as="points">
              <mxPoint x="230" y="401" />
              <mxPoint x="290" y="401" />
              <mxPoint x="290" y="421" />
            </Array>
          </mxGeometry>
        </mxCell>
        <mxCell id="HlD5PFbNKhqT3vz1J3pK-54" value="Curries" style="text;html=1;strokeColor=none;align=center;verticalAlign=middle;whiteSpace=wrap;rounded=1;fillColor=#ffffff;gradientDirection=north;shadow=1;glass=1;sketch=1;" vertex="1" parent="1">
          <mxGeometry x="140" y="420" width="70" height="40" as="geometry" />
        </mxCell>
        <mxCell id="HlD5PFbNKhqT3vz1J3pK-55" value="Snacks" style="text;html=1;strokeColor=none;align=center;verticalAlign=middle;whiteSpace=wrap;rounded=1;fillColor=#ffffff;gradientColor=#ffffff;gradientDirection=north;shadow=1;glass=1;sketch=1;" vertex="1" parent="1">
          <mxGeometry x="250" y="420" width="70" height="40" as="geometry" />
        </mxCell>
        <mxCell id="HlD5PFbNKhqT3vz1J3pK-56" value="1 week&lt;br&gt;1 meal per day&lt;br&gt;Total=7 meals" style="text;html=1;align=center;verticalAlign=middle;whiteSpace=wrap;rounded=1;gradientDirection=north;shadow=1;glass=1;sketch=1;fillColor=#d5e8d4;strokeColor=#82b366;" vertex="1" parent="1">
          <mxGeometry x="372.5" y="320" width="95" height="50" as="geometry" />
        </mxCell>
        <mxCell id="HlD5PFbNKhqT3vz1J3pK-58" value="Backend process" style="label;whiteSpace=wrap;html=1;align=center;verticalAlign=bottom;spacingLeft=0;spacingBottom=4;imageAlign=center;imageVerticalAlign=top;image=img/clipart/Gear_128x128.png;rounded=1;shadow=0;glass=0;sketch=1;fillColor=#f5f5f5;strokeColor=#666666;fontColor=#333333;" vertex="1" parent="1">
          <mxGeometry x="580" y="262.5" width="110" height="65" as="geometry" />
        </mxCell>
        <mxCell id="HlD5PFbNKhqT3vz1J3pK-59" value="&lt;br&gt;&lt;br&gt;&lt;br&gt;Vendor" style="shape=actor;whiteSpace=wrap;html=1;fillColor=#dae8fc;strokeColor=#6c8ebf;sketch=1;" vertex="1" parent="1">
          <mxGeometry x="740" y="360" width="40" height="60" as="geometry" />
        </mxCell>
        <mxCell id="HlD5PFbNKhqT3vz1J3pK-60" value="order acknowleged" style="endArrow=classic;html=1;" edge="1" parent="1">
          <mxGeometry relative="1" as="geometry">
            <mxPoint x="690" y="300" as="sourcePoint" />
            <mxPoint x="762.5" y="360" as="targetPoint" />
            <Array as="points">
              <mxPoint x="762.5" y="300" />
            </Array>
          </mxGeometry>
        </mxCell>
        <mxCell id="HlD5PFbNKhqT3vz1J3pK-63" value="" style="endArrow=none;dashed=1;html=1;dashPattern=1 3;strokeWidth=2;fillColor=#dae8fc;strokeColor=#6c8ebf;" edge="1" parent="1">
          <mxGeometry width="50" height="50" relative="1" as="geometry">
            <mxPoint x="762.5" y="340" as="sourcePoint" />
            <mxPoint x="762.5" y="200" as="targetPoint" />
          </mxGeometry>
        </mxCell>
        <mxCell id="HlD5PFbNKhqT3vz1J3pK-64" value="Database" style="shape=cylinder3;whiteSpace=wrap;html=1;boundedLbl=1;backgroundOutline=1;size=15;rounded=1;shadow=0;glass=1;sketch=0;fillColor=none;gradientColor=none;" vertex="1" parent="1">
          <mxGeometry x="730" y="510" width="60" height="80" as="geometry" />
        </mxCell>
        <mxCell id="HlD5PFbNKhqT3vz1J3pK-65" value="" style="endArrow=classic;html=1;" edge="1" parent="1">
          <mxGeometry width="50" height="50" relative="1" as="geometry">
            <mxPoint x="759.5" y="440" as="sourcePoint" />
            <mxPoint x="759.5" y="511" as="targetPoint" />
          </mxGeometry>
        </mxCell>
        <mxCell id="HlD5PFbNKhqT3vz1J3pK-66" value="Data feed" style="edgeLabel;html=1;align=center;verticalAlign=middle;resizable=0;points=[];" vertex="1" connectable="0" parent="HlD5PFbNKhqT3vz1J3pK-65">
          <mxGeometry x="-0.1268" y="1" relative="1" as="geometry">
            <mxPoint as="offset" />
          </mxGeometry>
        </mxCell>
      </root>
    </mxGraphModel>
  </diagram>
</mxfile>
